<svg xmlns="http://www.w3.org/2000/svg" viewBox="0 0 463.01 327"><title>Speedometer_Frame</title><g id="Layer_2" data-name="Layer 2"><g id="Layer_1-2" data-name="Layer 1"><path d="M462,209.17A231.58,231.58,0,0,0,19.67,138a232.24,232.24,0,0,0-7.44,167.91A31.33,31.33,0,0,0,42,327H421a31.33,31.33,0,0,0,29.79-21.12A231.65,231.65,0,0,0,462,209.17Zm-25.38,91.89A16.33,16.33,0,0,1,421,312H42a16.33,16.33,0,0,1-15.57-10.93A216.55,216.55,0,0,1,231.35,15q7.07,0,14.19.45C350.56,22.07,437.18,106,447,210.58a216.69,216.69,0,0,1-10.45,90.48Z"/><path d="M415.81,155.16c0-.06-.05-.11-.07-.16a200.23,200.23,0,0,0-42.38-63.62,7.86,7.86,0,0,0-.79-.94,6.91,6.91,0,0,0-.94-.79A200.3,200.3,0,0,0,308,47.27l-.17-.08-.21-.07a199.27,199.27,0,0,0-152.28,0l-.21.07-.17.08A200.3,200.3,0,0,0,91.37,89.65a6.91,6.91,0,0,0-.94.79,7.86,7.86,0,0,0-.79.94A200.23,200.23,0,0,0,47.26,155c0,.05,0,.1-.07.16a1.18,1.18,0,0,0-.07.2,199.6,199.6,0,0,0-6.47,134.33A7.49,7.49,0,0,0,47.82,295H415.18a7.49,7.49,0,0,0,7.17-5.31,199.6,199.6,0,0,0-6.47-134.33,1.18,1.18,0,0,0-.07-.2ZM409.54,280H53.46a184.8,184.8,0,0,1-6.29-41H63.5a7.5,7.5,0,0,0,0-15H47.16a183.39,183.39,0,0,1,11.15-56.12l15.11,6.26a7.5,7.5,0,1,0,5.74-13.86L64.08,154a185.33,185.33,0,0,1,31.83-47.52L107.4,118A7.5,7.5,0,1,0,118,107.41L106.52,95.92A185.14,185.14,0,0,1,154,64.08l6.25,15.08a7.5,7.5,0,1,0,13.86-5.74l-6.26-15.11A183.38,183.38,0,0,1,224,47.17V63.51a7.5,7.5,0,0,0,15,0V47.17a183.32,183.32,0,0,1,56.12,11.14l-6.26,15.11a7.5,7.5,0,1,0,13.86,5.74L309,64.08a185.14,185.14,0,0,1,47.51,31.84L345,107.41A7.5,7.5,0,1,0,355.6,118l11.49-11.49A185.19,185.19,0,0,1,398.93,154l-15.09,6.24a7.51,7.51,0,0,0,2.88,14.44,7.42,7.42,0,0,0,2.86-.58l15.11-6.26A183.39,183.39,0,0,1,415.84,224H399.5a7.5,7.5,0,0,0,0,15h16.33a184.8,184.8,0,0,1-6.29,41Z"/></g></g></svg>